<svg width="24" height="60" viewBox="0 0 24 60" fill="none" xmlns="http://www.w3.org/2000/svg">
<path d="M1.70313 58.9827L1.70313 1.87744M2.30068 25.0452L20.1869 36.7297C23.4767 38.8788 23.5552 43.7436 20.3365 46.0014L2.31065 58.646C2.06863 58.8158 1.73877 58.6394 1.73877 58.3403V25.3576C1.73877 25.064 2.05787 24.8866 2.30068 25.0452ZM2.30182 25.0489L10.6825 30.5684C15.0387 33.4373 15.143 39.8863 10.882 42.8997L2.31179 48.9605C2.06988 49.1316 1.73877 48.9554 1.73877 48.6556V25.3606C1.73877 25.0664 2.05907 24.8891 2.30182 25.0489ZM2.26526 34.3149L10.9919 40.0246C15.3724 42.8908 15.477 49.37 11.1913 52.381L2.27523 58.6452C2.03322 58.8152 1.70312 58.6389 1.70312 58.3396V34.6272C1.70312 34.3335 2.02246 34.156 2.26526 34.3149Z" stroke="white" stroke-width="2" stroke-linecap="round"/>
</svg>
