<svg width="23" height="23" viewBox="0 0 23 23" fill="none" xmlns="http://www.w3.org/2000/svg">
<path d="M7.01506 18.4001C7.16756 18.4001 7.31382 18.3395 7.42165 18.2317C7.52948 18.1238 7.59006 17.9776 7.59006 17.8251V13.9151C7.59006 13.7626 7.52948 13.6163 7.42165 13.5085C7.31382 13.4007 7.16756 13.3401 7.01506 13.3401C6.86256 13.3401 6.71631 13.4007 6.60848 13.5085C6.50064 13.6163 6.44006 13.7626 6.44006 13.9151V17.8251C6.44006 17.9776 6.50064 18.1238 6.60848 18.2317C6.71631 18.3395 6.86256 18.4001 7.01506 18.4001Z" fill="black"/>
<path d="M10.005 18.4001C10.1575 18.4001 10.3037 18.3395 10.4116 18.2317C10.5194 18.1238 10.58 17.9776 10.58 17.8251V13.9151C10.58 13.7626 10.5194 13.6163 10.4116 13.5085C10.3037 13.4007 10.1575 13.3401 10.005 13.3401C9.85249 13.3401 9.70624 13.4007 9.59841 13.5085C9.49057 13.6163 9.42999 13.7626 9.42999 13.9151V17.8251C9.42999 17.9776 9.49057 18.1238 9.59841 18.2317C9.70624 18.3395 9.85249 18.4001 10.005 18.4001Z" fill="black"/>
<path d="M12.9951 18.4001C13.1476 18.4001 13.2939 18.3395 13.4017 18.2317C13.5095 18.1238 13.5701 17.9776 13.5701 17.8251V13.9151C13.5701 13.7626 13.5095 13.6163 13.4017 13.5085C13.2939 13.4007 13.1476 13.3401 12.9951 13.3401C12.8426 13.3401 12.6964 13.4007 12.5885 13.5085C12.4807 13.6163 12.4201 13.7626 12.4201 13.9151V17.8251C12.4201 17.9776 12.4807 18.1238 12.5885 18.2317C12.6964 18.3395 12.8426 18.4001 12.9951 18.4001Z" fill="black"/>
<path d="M15.9853 18.4001C16.1378 18.4001 16.284 18.3395 16.3919 18.2317C16.4997 18.1238 16.5603 17.9776 16.5603 17.8251V13.9151C16.5603 13.7626 16.4997 13.6163 16.3919 13.5085C16.284 13.4007 16.1378 13.3401 15.9853 13.3401C15.8328 13.3401 15.6865 13.4007 15.5787 13.5085C15.4709 13.6163 15.4103 13.7626 15.4103 13.9151V17.8251C15.4103 17.9776 15.4709 18.1238 15.5787 18.2317C15.6865 18.3395 15.8328 18.4001 15.9853 18.4001Z" fill="black"/>
<path d="M20.93 11.8519V8.86195C20.9309 8.78586 20.9167 8.71035 20.8882 8.63979C20.8598 8.56923 20.8175 8.50502 20.7641 8.4509C20.7106 8.39677 20.6469 8.3538 20.5767 8.32447C20.5064 8.29514 20.4311 8.28004 20.355 8.28005H18.745L16.5347 3.91005C16.5347 3.89395 16.5186 3.87785 16.5094 3.86405C16.3365 3.59406 16.0984 3.37201 15.817 3.21844C15.5356 3.06487 15.22 2.98474 14.8994 2.98545H14.7798C14.6914 2.65622 14.4972 2.36523 14.227 2.15739C13.9568 1.94955 13.6257 1.83642 13.2848 1.83545H9.71521C9.37433 1.83642 9.04324 1.94955 8.77305 2.15739C8.50286 2.36523 8.30858 2.65622 8.22021 2.98545H8.11901C7.79312 2.98497 7.47234 3.06645 7.18617 3.22239C6.90001 3.37833 6.65766 3.60373 6.48141 3.87785C6.47386 3.89365 6.46541 3.90901 6.45611 3.92385L4.24811 8.28005H2.63811C2.48681 8.28187 2.34232 8.34325 2.23598 8.45088C2.12963 8.55852 2.07 8.70374 2.07001 8.85505V11.845C2.06992 11.8853 2.07455 11.9255 2.08381 11.9647L3.75131 19.1821C3.85795 19.6786 4.13217 20.1234 4.52794 20.4417C4.92371 20.7599 5.41693 20.9324 5.92481 20.93H17.0752C17.581 20.9334 18.0726 20.763 18.4678 20.4473C18.863 20.1317 19.1379 19.6899 19.2464 19.1959L20.9162 11.9739C20.9257 11.9339 20.9303 11.893 20.93 11.8519ZM9.31501 3.39025C9.31501 3.28411 9.35717 3.18232 9.43222 3.10727C9.50728 3.03221 9.60907 2.99005 9.71521 2.99005H13.2848C13.3909 2.99005 13.4927 3.03221 13.5678 3.10727C13.6428 3.18232 13.685 3.28411 13.685 3.39025V3.50985C13.685 3.61599 13.6428 3.71778 13.5678 3.79283C13.4927 3.86789 13.3909 3.91005 13.2848 3.91005H9.71521C9.60907 3.91005 9.50728 3.86789 9.43222 3.79283C9.35717 3.71778 9.31501 3.61599 9.31501 3.50985V3.39025ZM7.47501 4.47585C7.54747 4.37224 7.64383 4.28763 7.75593 4.22917C7.86804 4.17072 7.99258 4.14015 8.11901 4.14005H8.30071C8.42268 4.41346 8.62109 4.64577 8.87206 4.809C9.12302 4.97222 9.41583 5.05941 9.71521 5.06005H13.2848C13.5842 5.05941 13.877 4.97222 14.128 4.809C14.3789 4.64577 14.5773 4.41346 14.6993 4.14005H14.8994C15.0217 4.13863 15.1425 4.16724 15.2512 4.22338C15.3599 4.27953 15.4531 4.36148 15.5227 4.46205L17.4639 8.28005H5.53611L7.47501 4.47585ZM3.22001 9.43005H19.78V11.2701H3.22001V9.43005ZM18.1263 18.9405C18.0737 19.1797 17.9406 19.3935 17.7493 19.5462C17.558 19.699 17.32 19.7816 17.0752 19.7801H5.92481C5.67935 19.7813 5.44091 19.6982 5.24952 19.5445C5.05813 19.3908 4.92544 19.1759 4.87371 18.936L3.36721 12.4201H19.6328L18.1263 18.9405Z" fill="black"/>
</svg>
