<svg width="12" height="14" viewBox="0 0 12 14" fill="none" xmlns="http://www.w3.org/2000/svg">
<path d="M5.99998 7.18038C5.84128 7.18038 5.68908 7.11734 5.57687 7.00512C5.46465 6.89291 5.40161 6.74071 5.40161 6.58201V0.598365C5.40161 0.439669 5.46465 0.287472 5.57687 0.175257C5.68908 0.0630419 5.84128 0 5.99998 0C6.15867 0 6.31087 0.0630419 6.42308 0.175257C6.5353 0.287472 6.59834 0.439669 6.59834 0.598365V6.58201C6.59834 6.74071 6.5353 6.89291 6.42308 7.00512C6.31087 7.11734 6.15867 7.18038 5.99998 7.18038Z" fill="black"/>
<path d="M6 13.164C4.71349 13.1675 3.4601 12.7563 2.42572 11.9913C1.39134 11.2264 0.631059 10.1484 0.257624 8.91724C-0.115811 7.68612 -0.0825083 6.36742 0.352592 5.15671C0.787692 3.946 1.60142 2.90777 2.67309 2.19598C2.73831 2.15197 2.81156 2.12125 2.88866 2.10555C2.96575 2.08986 3.04518 2.0895 3.12242 2.1045C3.19965 2.1195 3.27317 2.14957 3.33878 2.19299C3.4044 2.2364 3.46081 2.29232 3.50482 2.35754C3.54882 2.42276 3.57955 2.49601 3.59525 2.5731C3.61094 2.6502 3.6113 2.72963 3.5963 2.80686C3.58129 2.88409 3.55123 2.95761 3.50781 3.02323C3.46439 3.08884 3.40848 3.14526 3.34326 3.18926C2.48875 3.75938 1.8403 4.58927 1.49373 5.55628C1.14717 6.5233 1.12087 7.57615 1.41873 8.55926C1.71658 9.54237 2.32279 10.4036 3.14778 11.0157C3.97276 11.6277 4.97276 11.9582 6 11.9582C7.02724 11.9582 8.02724 11.6277 8.85222 11.0157C9.67721 10.4036 10.2834 9.54237 10.5813 8.55926C10.8791 7.57615 10.8528 6.5233 10.5063 5.55628C10.1597 4.58927 9.51125 3.75938 8.65674 3.18926C8.52502 3.10039 8.434 2.96284 8.4037 2.80686C8.37341 2.65088 8.40631 2.48925 8.49518 2.35754C8.58405 2.22582 8.72161 2.1348 8.87759 2.1045C9.03357 2.0742 9.19519 2.10711 9.32691 2.19598C10.3986 2.90777 11.2123 3.946 11.6474 5.15671C12.0825 6.36742 12.1158 7.68612 11.7424 8.91724C11.3689 10.1484 10.6087 11.2264 9.57428 11.9913C8.5399 12.7563 7.28651 13.1675 6 13.164Z" fill="black"/>
</svg>
