<svg width="16" height="14" viewBox="0 0 16 14" fill="none" xmlns="http://www.w3.org/2000/svg">
<path d="M15.5462 2.42726C14.8923 0.930501 13.6105 0.0464187 12.0297 0.00210814C10.5132 -0.0453979 8.97424 0.713634 8 1.91045C7.02576 0.713634 5.48699 -0.0436937 3.97025 0.00210814C2.38953 0.0464187 1.10775 0.930288 0.453851 2.42726C-1.49987 6.89944 3.3923 11.0297 4.9382 12.189C5.77272 12.8149 6.70542 13.4001 7.71071 13.9284C7.80133 13.9761 7.90056 14 8 14C8.09944 14 8.19867 13.9761 8.28929 13.9284C9.29458 13.4001 10.2273 12.8147 11.0618 12.189C12.6077 11.0297 17.4999 6.89944 15.5462 2.42726ZM10.3139 11.1609C9.61303 11.6865 8.83578 12.1826 8 12.6385C7.16422 12.1826 6.38697 11.6865 5.68608 11.1609C4.72128 10.4375 -0.00977192 6.64082 1.60452 2.94578C2.21982 1.53785 3.37279 1.29777 4.00529 1.27987C4.03592 1.27902 4.06613 1.27859 4.09696 1.27859C5.45406 1.27859 6.81871 2.12177 7.43988 3.35438C7.54771 3.56805 7.76399 3.70247 8.00021 3.70247C8.23643 3.70247 8.45271 3.56805 8.56054 3.35438C9.19556 2.09387 10.6152 1.23961 11.9949 1.27987C12.6276 1.29777 13.7806 1.53785 14.3957 2.94578C16.01 6.64082 11.2787 10.4373 10.3139 11.1609Z" fill="black"/>
</svg>
