<svg width="13" height="11" viewBox="0 0 13 11" fill="none" xmlns="http://www.w3.org/2000/svg">
<path d="M12.025 0H0.974999C0.716413 5.44929e-09 0.468418 0.102723 0.285571 0.285571C0.102723 0.468418 0 0.716413 0 0.974999C0 1.23358 0.102723 1.48158 0.285571 1.66443C0.468418 1.84728 0.716413 1.95 0.974999 1.95H1.3V10.2654C1.29988 10.3083 1.30827 10.3509 1.3247 10.3905C1.34113 10.4302 1.36526 10.4662 1.3957 10.4965C1.42615 10.5268 1.46229 10.5508 1.50205 10.567C1.54181 10.5832 1.5844 10.5914 1.62734 10.591C1.66973 10.591 1.71169 10.5825 1.75076 10.5661C1.78983 10.5496 1.82521 10.5255 1.85484 10.4952L2.6 9.74999L3.44039 10.5904C3.50074 10.6507 3.5724 10.6986 3.65126 10.7313C3.73012 10.764 3.81464 10.7808 3.9 10.7808C3.98535 10.7808 4.06988 10.764 4.14874 10.7313C4.2276 10.6986 4.29925 10.6507 4.3596 10.5904L5.2 9.74999L6.04039 10.5904C6.10074 10.6507 6.17239 10.6986 6.25125 10.7313C6.33011 10.764 6.41464 10.7808 6.49999 10.7808C6.58535 10.7808 6.66987 10.764 6.74873 10.7313C6.82759 10.6986 6.89925 10.6507 6.9596 10.5904L7.79999 9.74999L8.64038 10.5904C8.70074 10.6507 8.77239 10.6986 8.85125 10.7313C8.93011 10.764 9.01463 10.7808 9.09999 10.7808C9.18535 10.7808 9.26987 10.764 9.34873 10.7313C9.42759 10.6986 9.49925 10.6507 9.5596 10.5904L10.4 9.74999L11.1452 10.4952C11.1748 10.5255 11.2102 10.5496 11.2492 10.566C11.2883 10.5825 11.3303 10.591 11.3727 10.591C11.4156 10.5914 11.4582 10.5832 11.4979 10.567C11.5377 10.5507 11.5738 10.5268 11.6043 10.4965C11.6347 10.4662 11.6589 10.4302 11.6753 10.3905C11.6917 10.3508 11.7001 10.3083 11.7 10.2654V1.95H12.025C12.2836 1.95 12.5316 1.84728 12.7144 1.66443C12.8973 1.48158 13 1.23358 13 0.974999C13 0.716413 12.8973 0.468418 12.7144 0.285571C12.5316 0.102723 12.2836 5.44929e-09 12.025 0H12.025ZM1.3 1.3H0.974999C0.888804 1.3 0.806139 1.26576 0.74519 1.20481C0.68424 1.14386 0.649999 1.06119 0.649999 0.974999C0.649999 0.888804 0.68424 0.806139 0.74519 0.74519C0.806139 0.68424 0.888804 0.649999 0.974999 0.649999H1.3V1.3ZM11.05 9.48073L10.4 8.83077L9.09999 10.1308L7.79999 8.83077L6.49999 10.1308L5.2 8.83077L3.9 10.1308L2.6 8.83077L1.95 9.48073V0.649999H11.05V9.48073ZM12.025 1.3H11.7V0.649999H12.025C12.1112 0.649999 12.1938 0.68424 12.2548 0.74519C12.3157 0.806139 12.35 0.888804 12.35 0.974999C12.35 1.06119 12.3157 1.14386 12.2548 1.20481C12.1938 1.26576 12.1112 1.3 12.025 1.3Z" fill="black"/>
<path d="M3.575 3.2501H9.42499C9.51119 3.2501 9.59385 3.21586 9.6548 3.15491C9.71575 3.09396 9.74999 3.01129 9.74999 2.9251C9.74999 2.8389 9.71575 2.75624 9.6548 2.69529C9.59385 2.63434 9.51119 2.6001 9.42499 2.6001H3.575C3.4888 2.6001 3.40614 2.63434 3.34519 2.69529C3.28424 2.75624 3.25 2.8389 3.25 2.9251C3.25 3.01129 3.28424 3.09396 3.34519 3.15491C3.40614 3.21586 3.4888 3.2501 3.575 3.2501Z" fill="black"/>
<path d="M3.575 5.20005H9.42499C9.51119 5.20005 9.59385 5.16581 9.6548 5.10486C9.71575 5.04391 9.74999 4.96124 9.74999 4.87505C9.74999 4.78885 9.71575 4.70619 9.6548 4.64524C9.59385 4.58429 9.51119 4.55005 9.42499 4.55005H3.575C3.4888 4.55005 3.40614 4.58429 3.34519 4.64524C3.28424 4.70619 3.25 4.78885 3.25 4.87505C3.25 4.96124 3.28424 5.04391 3.34519 5.10486C3.40614 5.16581 3.4888 5.20005 3.575 5.20005Z" fill="black"/>
<path d="M3.575 7.15H9.42499C9.51119 7.15 9.59385 7.11576 9.6548 7.05481C9.71575 6.99386 9.74999 6.91119 9.74999 6.825C9.74999 6.7388 9.71575 6.65614 9.6548 6.59519C9.59385 6.53424 9.51119 6.5 9.42499 6.5H3.575C3.4888 6.5 3.40614 6.53424 3.34519 6.59519C3.28424 6.65614 3.25 6.7388 3.25 6.825C3.25 6.91119 3.28424 6.99386 3.34519 7.05481C3.40614 7.11576 3.4888 7.15 3.575 7.15Z" fill="black"/>
</svg>
