<svg width="17" height="17" viewBox="0 0 17 17" fill="none" xmlns="http://www.w3.org/2000/svg">
<path d="M0.620439 3.03571H3.72263H3.78468C4.03285 4.06785 5.02556 4.85713 6.20439 4.85713C7.38322 4.85713 8.31388 4.06785 8.6241 3.03571H8.68614H15.511C15.8832 3.03571 16.1314 2.79285 16.1314 2.42857C16.1314 2.06428 15.8832 1.82142 15.511 1.82142H8.68614H8.6241C8.37593 0.789284 7.38322 0 6.20439 0C5.02556 0 4.0949 0.789284 3.78468 1.82142H3.72263H0.620439C0.248176 1.82142 0 2.06428 0 2.42857C0 2.79285 0.248176 3.03571 0.620439 3.03571ZM6.20439 1.21428C6.88687 1.21428 7.44527 1.76071 7.44527 2.42857C7.44527 3.09642 6.88687 3.64285 6.20439 3.64285C5.52191 3.64285 4.96351 3.09642 4.96351 2.42857C4.96351 1.76071 5.52191 1.21428 6.20439 1.21428Z" fill="black"/>
<path d="M0.620439 9.10712H8.06571H8.12775C8.37593 10.1393 9.36863 10.9285 10.5475 10.9285C11.7263 10.9285 12.657 10.1393 12.9672 9.10712H13.0292H15.511C15.8832 9.10712 16.1314 8.86426 16.1314 8.49998C16.1314 8.13569 15.8832 7.89284 15.511 7.89284H13.0292H12.9672C12.719 6.8607 11.7263 6.07141 10.5475 6.07141C9.36863 6.07141 8.43797 6.8607 8.12775 7.89284H8.06571H0.620439C0.248176 7.89284 0 8.13569 0 8.49998C0 8.86426 0.248176 9.10712 0.620439 9.10712ZM10.5475 7.28569C11.2299 7.28569 11.7883 7.83212 11.7883 8.49998C11.7883 9.16783 11.2299 9.71426 10.5475 9.71426C9.86498 9.71426 9.30658 9.16783 9.30658 8.49998C9.30658 7.83212 9.86498 7.28569 10.5475 7.28569Z" fill="black"/>
<path d="M0.620439 15.1785H3.72263H3.78468C4.03285 16.2107 5.02556 17 6.20439 17C7.38322 17 8.31388 16.2107 8.6241 15.1785H8.68614H15.511C15.8832 15.1785 16.1314 14.9357 16.1314 14.5714C16.1314 14.2071 15.8832 13.9642 15.511 13.9642H8.68614H8.6241C8.37593 12.9321 7.38322 12.1428 6.20439 12.1428C5.02556 12.1428 4.0949 12.9321 3.78468 13.9642H3.72263H0.620439C0.248176 13.9642 0 14.2071 0 14.5714C0 14.9357 0.248176 15.1785 0.620439 15.1785ZM6.20439 13.3571C6.88687 13.3571 7.44527 13.9035 7.44527 14.5714C7.44527 15.2392 6.88687 15.7857 6.20439 15.7857C5.52191 15.7857 4.96351 15.2392 4.96351 14.5714C4.96351 13.9035 5.52191 13.3571 6.20439 13.3571Z" fill="black"/>
</svg>
