<svg width="36" height="29" viewBox="0 0 36 29" fill="none" xmlns="http://www.w3.org/2000/svg">
<mask id="path-1-inside-1" fill="white">
<path d="M34.0288 4.88298C33.8992 4.92553 33.7588 4.95745 33.6292 5C32.9165 5.19149 32.1822 5.32979 31.4371 5.41489C31.1564 5.44681 30.908 5.24468 30.8756 4.96808C30.854 4.75532 30.962 4.55319 31.1456 4.46808C31.8259 4.06383 32.4306 3.54255 32.9165 2.92553C33.1217 2.67021 33.3053 2.40426 33.4781 2.11702C33.1649 2.26596 32.8409 2.39362 32.5062 2.52128C31.7287 2.81915 30.908 3.04255 30.0765 3.21277C29.893 3.24468 29.7094 3.18085 29.5906 3.04255C28.9751 2.40426 28.23 1.88298 27.3877 1.53191C26.5778 1.19149 25.6815 1 24.7313 1C22.8955 1 21.2218 1.73404 20.0231 2.92553C18.8137 4.11702 18.0686 5.75532 18.0686 7.56383C18.0686 7.82979 18.0794 8.07447 18.1118 8.31915C18.1442 8.57447 18.1874 8.81915 18.2414 9.05319C18.3062 9.31915 18.1334 9.59574 17.8634 9.64894C17.8094 9.65957 17.7555 9.65957 17.7015 9.65957C14.6995 9.51064 11.8703 8.73404 9.34343 7.46808C6.95696 6.2766 4.82966 4.6383 3.06951 2.67021C2.92913 2.97872 2.82114 3.28723 2.73476 3.61702C2.58358 4.17021 2.50799 4.74468 2.50799 5.32979C2.50799 6.44681 2.78875 7.51064 3.28548 8.42553C3.80381 9.38298 4.5489 10.1915 5.46677 10.7872C5.70434 10.9362 5.76913 11.2553 5.60715 11.4787C5.49917 11.6383 5.31559 11.7128 5.14282 11.7021C4.5381 11.6809 3.94419 11.5957 3.38266 11.4362C3.06951 11.3511 2.77795 11.2553 2.48639 11.1277C2.62677 12.4255 3.1559 13.6064 3.95498 14.5638C4.91605 15.7128 6.25506 16.5426 7.79925 16.8404C8.08001 16.8936 8.25278 17.1596 8.19879 17.4362C8.1556 17.6383 8.00442 17.7766 7.82084 17.8298C7.50769 17.9149 7.17293 17.9787 6.82738 18.0213C6.48183 18.0638 6.14708 18.0851 5.81232 18.0851C5.62875 18.0851 5.43438 18.0745 5.24 18.0638C5.71514 19.0638 6.42784 19.9255 7.31331 20.5745C8.39316 21.3617 9.72138 21.8404 11.1576 21.8723C11.4383 21.8723 11.6651 22.1064 11.6543 22.383C11.6543 22.5426 11.5787 22.6809 11.4599 22.766C10.1641 23.766 8.69552 24.5638 7.11894 25.0957C5.70434 25.5745 4.19255 25.8511 2.61597 25.8936C3.67422 26.4149 4.78647 26.8511 5.93111 27.1809C5.94191 27.1809 5.94191 27.1809 5.9527 27.1915C7.71286 27.7021 9.581 27.9681 11.5247 27.9681C17.4423 27.9681 22.1288 25.7447 25.4548 22.4681C29.3746 18.6064 31.4263 13.2766 31.4263 8.3617V7.91489C31.4263 7.7766 31.4155 7.62766 31.4155 7.46808C31.4047 7.29787 31.4911 7.1383 31.6315 7.04255C32.301 6.56383 32.9273 6.03191 33.5104 5.44681C33.694 5.25532 33.8668 5.06383 34.0396 4.87234L34.0288 4.88298ZM33.3593 4.03191C34.0072 3.8617 34.6443 3.6383 35.249 3.37234C35.4434 3.26596 35.6917 3.29787 35.8537 3.45745C36.0373 3.6383 36.0481 3.93617 35.8861 4.12766C35.3894 4.85106 34.8387 5.53191 34.2231 6.14894C33.6724 6.71277 33.0677 7.23404 32.4306 7.71277V7.91489C32.4306 8.12766 32.4414 8.28723 32.4414 8.38298C32.4414 13.5532 30.2817 19.1489 26.1675 23.2021C22.658 26.6596 17.7339 29 11.5139 29C9.48381 29 7.51849 28.7128 5.66115 28.1809C5.65035 28.1809 5.63955 28.1809 5.63955 28.1702C3.71742 27.617 1.91407 26.7979 0.261902 25.7553C0.0891262 25.6596 -0.0188586 25.4681 0.00273834 25.2553C0.0351338 24.9787 0.294297 24.7872 0.56426 24.8191C0.84502 24.8511 1.11498 24.8723 1.38494 24.8936C1.64411 24.9043 1.92487 24.9149 2.21643 24.9149C3.8146 24.9149 5.33719 24.6489 6.76259 24.1702C7.82084 23.8085 8.8251 23.3298 9.74297 22.7447C8.60913 22.5213 7.57248 22.0532 6.6762 21.4043C5.40198 20.4681 4.43012 19.1596 3.93339 17.6383C3.91179 17.5638 3.90099 17.4787 3.91179 17.3936C3.96578 17.117 4.22495 16.9362 4.50571 16.9894C4.71088 17.0213 4.92685 17.0532 5.13202 17.0745C5.22921 17.0851 5.33719 17.0957 5.43438 17.0957C4.5489 16.6277 3.76061 15.9787 3.1235 15.2234C2.04365 13.9149 1.38494 12.2447 1.38494 10.4255V10.3404C1.38494 10.2553 1.40654 10.1809 1.44974 10.0957C1.57932 9.85106 1.89247 9.76596 2.14084 9.89362C2.56198 10.117 2.99392 10.2979 3.45825 10.4362C3.02631 9.97872 2.65917 9.45745 2.35681 8.90425C1.77369 7.84043 1.44974 6.61702 1.44974 5.34043C1.44974 4.67021 1.53612 4.01064 1.7197 3.37234C1.89247 2.73404 2.15164 2.11702 2.49719 1.53191C2.52958 1.47872 2.56198 1.43617 2.61597 1.39362C2.83194 1.2234 3.1559 1.25532 3.32867 1.46809C5.07803 3.58511 7.27012 5.34043 9.77537 6.58511C12.0107 7.70213 14.4835 8.41489 17.1075 8.62766C17.0967 8.56383 17.0859 8.5 17.0859 8.43617C17.0535 8.14894 17.032 7.85106 17.032 7.56383C17.032 5.47872 17.8958 3.58511 19.278 2.21277C20.671 0.840425 22.5824 0 24.7097 0C25.7895 0 26.8262 0.223404 27.7656 0.617021C28.6511 0.989362 29.4394 1.52128 30.1197 2.18085C30.8 2.03191 31.4695 1.84043 32.1174 1.59574C32.8625 1.31915 33.5752 0.978723 34.2447 0.585106C34.3635 0.510638 34.5147 0.489362 34.6551 0.542553C34.925 0.62766 35.0654 0.904255 34.979 1.17021C34.6875 2.05319 34.2447 2.8617 33.6724 3.56383C33.532 3.73404 33.3917 3.90426 33.2405 4.06383L33.3161 4.04255L33.3593 4.03191Z"/>
</mask>
<path d="M34.0288 4.88298C33.8992 4.92553 33.7588 4.95745 33.6292 5C32.9165 5.19149 32.1822 5.32979 31.4371 5.41489C31.1564 5.44681 30.908 5.24468 30.8756 4.96808C30.854 4.75532 30.962 4.55319 31.1456 4.46808C31.8259 4.06383 32.4306 3.54255 32.9165 2.92553C33.1217 2.67021 33.3053 2.40426 33.4781 2.11702C33.1649 2.26596 32.8409 2.39362 32.5062 2.52128C31.7287 2.81915 30.908 3.04255 30.0765 3.21277C29.893 3.24468 29.7094 3.18085 29.5906 3.04255C28.9751 2.40426 28.23 1.88298 27.3877 1.53191C26.5778 1.19149 25.6815 1 24.7313 1C22.8955 1 21.2218 1.73404 20.0231 2.92553C18.8137 4.11702 18.0686 5.75532 18.0686 7.56383C18.0686 7.82979 18.0794 8.07447 18.1118 8.31915C18.1442 8.57447 18.1874 8.81915 18.2414 9.05319C18.3062 9.31915 18.1334 9.59574 17.8634 9.64894C17.8094 9.65957 17.7555 9.65957 17.7015 9.65957C14.6995 9.51064 11.8703 8.73404 9.34343 7.46808C6.95696 6.2766 4.82966 4.6383 3.06951 2.67021C2.92913 2.97872 2.82114 3.28723 2.73476 3.61702C2.58358 4.17021 2.50799 4.74468 2.50799 5.32979C2.50799 6.44681 2.78875 7.51064 3.28548 8.42553C3.80381 9.38298 4.5489 10.1915 5.46677 10.7872C5.70434 10.9362 5.76913 11.2553 5.60715 11.4787C5.49917 11.6383 5.31559 11.7128 5.14282 11.7021C4.5381 11.6809 3.94419 11.5957 3.38266 11.4362C3.06951 11.3511 2.77795 11.2553 2.48639 11.1277C2.62677 12.4255 3.1559 13.6064 3.95498 14.5638C4.91605 15.7128 6.25506 16.5426 7.79925 16.8404C8.08001 16.8936 8.25278 17.1596 8.19879 17.4362C8.1556 17.6383 8.00442 17.7766 7.82084 17.8298C7.50769 17.9149 7.17293 17.9787 6.82738 18.0213C6.48183 18.0638 6.14708 18.0851 5.81232 18.0851C5.62875 18.0851 5.43438 18.0745 5.24 18.0638C5.71514 19.0638 6.42784 19.9255 7.31331 20.5745C8.39316 21.3617 9.72138 21.8404 11.1576 21.8723C11.4383 21.8723 11.6651 22.1064 11.6543 22.383C11.6543 22.5426 11.5787 22.6809 11.4599 22.766C10.1641 23.766 8.69552 24.5638 7.11894 25.0957C5.70434 25.5745 4.19255 25.8511 2.61597 25.8936C3.67422 26.4149 4.78647 26.8511 5.93111 27.1809C5.94191 27.1809 5.94191 27.1809 5.9527 27.1915C7.71286 27.7021 9.581 27.9681 11.5247 27.9681C17.4423 27.9681 22.1288 25.7447 25.4548 22.4681C29.3746 18.6064 31.4263 13.2766 31.4263 8.3617V7.91489C31.4263 7.7766 31.4155 7.62766 31.4155 7.46808C31.4047 7.29787 31.4911 7.1383 31.6315 7.04255C32.301 6.56383 32.9273 6.03191 33.5104 5.44681C33.694 5.25532 33.8668 5.06383 34.0396 4.87234L34.0288 4.88298ZM33.3593 4.03191C34.0072 3.8617 34.6443 3.6383 35.249 3.37234C35.4434 3.26596 35.6917 3.29787 35.8537 3.45745C36.0373 3.6383 36.0481 3.93617 35.8861 4.12766C35.3894 4.85106 34.8387 5.53191 34.2231 6.14894C33.6724 6.71277 33.0677 7.23404 32.4306 7.71277V7.91489C32.4306 8.12766 32.4414 8.28723 32.4414 8.38298C32.4414 13.5532 30.2817 19.1489 26.1675 23.2021C22.658 26.6596 17.7339 29 11.5139 29C9.48381 29 7.51849 28.7128 5.66115 28.1809C5.65035 28.1809 5.63955 28.1809 5.63955 28.1702C3.71742 27.617 1.91407 26.7979 0.261902 25.7553C0.0891262 25.6596 -0.0188586 25.4681 0.00273834 25.2553C0.0351338 24.9787 0.294297 24.7872 0.56426 24.8191C0.84502 24.8511 1.11498 24.8723 1.38494 24.8936C1.64411 24.9043 1.92487 24.9149 2.21643 24.9149C3.8146 24.9149 5.33719 24.6489 6.76259 24.1702C7.82084 23.8085 8.8251 23.3298 9.74297 22.7447C8.60913 22.5213 7.57248 22.0532 6.6762 21.4043C5.40198 20.4681 4.43012 19.1596 3.93339 17.6383C3.91179 17.5638 3.90099 17.4787 3.91179 17.3936C3.96578 17.117 4.22495 16.9362 4.50571 16.9894C4.71088 17.0213 4.92685 17.0532 5.13202 17.0745C5.22921 17.0851 5.33719 17.0957 5.43438 17.0957C4.5489 16.6277 3.76061 15.9787 3.1235 15.2234C2.04365 13.9149 1.38494 12.2447 1.38494 10.4255V10.3404C1.38494 10.2553 1.40654 10.1809 1.44974 10.0957C1.57932 9.85106 1.89247 9.76596 2.14084 9.89362C2.56198 10.117 2.99392 10.2979 3.45825 10.4362C3.02631 9.97872 2.65917 9.45745 2.35681 8.90425C1.77369 7.84043 1.44974 6.61702 1.44974 5.34043C1.44974 4.67021 1.53612 4.01064 1.7197 3.37234C1.89247 2.73404 2.15164 2.11702 2.49719 1.53191C2.52958 1.47872 2.56198 1.43617 2.61597 1.39362C2.83194 1.2234 3.1559 1.25532 3.32867 1.46809C5.07803 3.58511 7.27012 5.34043 9.77537 6.58511C12.0107 7.70213 14.4835 8.41489 17.1075 8.62766C17.0967 8.56383 17.0859 8.5 17.0859 8.43617C17.0535 8.14894 17.032 7.85106 17.032 7.56383C17.032 5.47872 17.8958 3.58511 19.278 2.21277C20.671 0.840425 22.5824 0 24.7097 0C25.7895 0 26.8262 0.223404 27.7656 0.617021C28.6511 0.989362 29.4394 1.52128 30.1197 2.18085C30.8 2.03191 31.4695 1.84043 32.1174 1.59574C32.8625 1.31915 33.5752 0.978723 34.2447 0.585106C34.3635 0.510638 34.5147 0.489362 34.6551 0.542553C34.925 0.62766 35.0654 0.904255 34.979 1.17021C34.6875 2.05319 34.2447 2.8617 33.6724 3.56383C33.532 3.73404 33.3917 3.90426 33.2405 4.06383L33.3161 4.04255L33.3593 4.03191Z" fill="black" stroke="black" stroke-width="14" mask="url(#path-1-inside-1)"/>
</svg>
