<svg width="15" height="13" viewBox="0 0 15 13" fill="none" xmlns="http://www.w3.org/2000/svg">
<path d="M14.56 5.96375L12.87 4.27375C12.74 4.14375 12.545 4.07876 12.415 4.07876C12.35 4.07876 12.22 4.07876 12.155 4.14376C11.895 4.20876 11.7 4.46876 11.7 4.79376V4.98875H10.985V2.84376C10.985 2.71376 10.92 2.64875 10.855 2.58375C10.855 2.58375 10.855 2.58376 10.79 2.51876L5.65501 0.04875C5.52501 -0.01625 5.46001 -0.01625 5.33001 0.04875L0.260016 2.51876C0.260016 2.51876 0.194992 2.51875 0.194992 2.58375C0.064992 2.64875 0 2.77875 0 2.90875V9.21375C0 9.34375 0.064992 9.47375 0.194992 9.53875L5.33001 12.0087H5.39499H5.46001H5.525H5.58998L10.66 9.53875C10.79 9.47375 10.855 9.34375 10.855 9.21375V8.17375H11.57C11.57 8.49875 11.83 8.69375 12.025 8.82375C12.155 8.88875 12.285 8.88875 12.35 8.88875C12.545 8.88875 12.675 8.82376 12.805 8.69376L14.495 7.00376C14.625 6.87376 14.69 6.67875 14.69 6.54875C14.755 6.22375 14.69 6.09375 14.56 5.96375ZM5.525 0.763754L9.81498 2.84376L8.125 3.62375L3.83502 1.54376L5.525 0.763754ZM2.98998 1.93375L7.28001 4.01375L5.525 4.85875L3.18502 3.68875L1.23502 2.77876L2.98998 1.93375ZM0.714984 3.42876L3.25 4.66375L5.13501 5.57375V11.0337L0.714984 8.88875V3.42876ZM10.27 8.88875L5.91498 11.0337V5.57375L10.27 3.42876V4.98875H8.90501C8.51501 4.98875 8.125 5.37876 8.125 5.76876V7.39376C8.125 7.78376 8.51501 8.10875 8.90501 8.10875H10.27V8.88875ZM12.415 8.04376V7.32876H8.90501L8.83998 7.26375V5.70376L8.90501 5.63875H12.415V4.79376L14.04 6.41876L12.415 8.04376Z" fill="black"/>
</svg>
