<svg width="19" height="20" viewBox="0 0 19 20" fill="none" xmlns="http://www.w3.org/2000/svg">
<path d="M18.93 10.8519V7.86195C18.9309 7.78586 18.9167 7.71035 18.8882 7.63979C18.8598 7.56923 18.8175 7.50502 18.7641 7.4509C18.7106 7.39677 18.6469 7.3538 18.5767 7.32447C18.5064 7.29514 18.4311 7.28004 18.355 7.28005H16.745L14.5347 2.91005C14.5347 2.89395 14.5186 2.87785 14.5094 2.86405C14.3365 2.59406 14.0984 2.37201 13.817 2.21844C13.5356 2.06487 13.22 1.98474 12.8994 1.98545H12.7798C12.6914 1.65622 12.4972 1.36523 12.227 1.15739C11.9568 0.949555 11.6257 0.836419 11.2848 0.835449H7.71521C7.37433 0.836419 7.04324 0.949555 6.77305 1.15739C6.50286 1.36523 6.30858 1.65622 6.22021 1.98545H6.11901C5.79312 1.98497 5.47234 2.06645 5.18617 2.22239C4.90001 2.37833 4.65766 2.60373 4.48141 2.87785C4.47386 2.89365 4.46541 2.90901 4.45611 2.92385L2.24811 7.28005H0.638109C0.486808 7.28187 0.342321 7.34325 0.235975 7.45088C0.12963 7.55852 0.0699977 7.70374 0.0700086 7.85505V10.845C0.0699187 10.8853 0.0745504 10.9255 0.0838087 10.9647L1.75131 18.1821C1.85795 18.6786 2.13217 19.1234 2.52794 19.4417C2.92371 19.7599 3.41693 19.9324 3.92481 19.93H15.0752C15.581 19.9334 16.0726 19.763 16.4678 19.4473C16.863 19.1317 17.1379 18.6899 17.2464 18.1959L18.9162 10.9739C18.9257 10.9339 18.9303 10.893 18.93 10.8519ZM7.31501 2.39025C7.31501 2.28411 7.35717 2.18232 7.43222 2.10727C7.50728 2.03221 7.60907 1.99005 7.71521 1.99005H11.2848C11.3909 1.99005 11.4927 2.03221 11.5678 2.10727C11.6428 2.18232 11.685 2.28411 11.685 2.39025V2.50985C11.685 2.61599 11.6428 2.71778 11.5678 2.79283C11.4927 2.86789 11.3909 2.91005 11.2848 2.91005H7.71521C7.60907 2.91005 7.50728 2.86789 7.43222 2.79283C7.35717 2.71778 7.31501 2.61599 7.31501 2.50985V2.39025ZM5.47501 3.47585C5.54747 3.37224 5.64383 3.28763 5.75593 3.22917C5.86804 3.17072 5.99258 3.14015 6.11901 3.14005H6.30071C6.42268 3.41346 6.62109 3.64577 6.87206 3.809C7.12302 3.97222 7.41583 4.05941 7.71521 4.06005H11.2848C11.5842 4.05941 11.877 3.97222 12.128 3.809C12.3789 3.64577 12.5773 3.41346 12.6993 3.14005H12.8994C13.0217 3.13863 13.1425 3.16724 13.2512 3.22338C13.3599 3.27953 13.4531 3.36148 13.5227 3.46205L15.4639 7.28005H3.53611L5.47501 3.47585ZM1.22001 8.43005H17.78V10.2701H1.22001V8.43005ZM16.1263 17.9405C16.0737 18.1797 15.9406 18.3935 15.7493 18.5462C15.558 18.699 15.32 18.7816 15.0752 18.7801H3.92481C3.67935 18.7813 3.44091 18.6982 3.24952 18.5445C3.05813 18.3908 2.92544 18.1759 2.87371 17.936L1.36721 11.4201H17.6328L16.1263 17.9405Z" fill="black"/>
</svg>
