<svg width="18" height="16" viewBox="0 0 18 16" fill="none" xmlns="http://www.w3.org/2000/svg">
<path d="M16.9136 3.27765C16.2279 1.73193 14.8837 0.818933 13.226 0.773173C11.6356 0.724113 10.0217 1.50797 8.99999 2.74393C7.97831 1.50797 6.36461 0.725873 4.77401 0.773173C3.11631 0.818933 1.77211 1.73171 1.08636 3.27765C-0.962495 7.89611 4.1679 12.1615 5.78908 13.3587C6.66425 14.0051 7.64237 14.6094 8.69661 15.155C8.79165 15.2043 8.89571 15.2289 8.99999 15.2289C9.10427 15.2289 9.20833 15.2043 9.30337 15.155C10.3576 14.6094 11.3357 14.0049 12.2109 13.3587C13.8321 12.1615 18.9625 7.89611 16.9136 3.27765ZM11.4266 12.297C10.6916 12.8397 9.87647 13.3521 8.99999 13.8229C8.12351 13.3521 7.30841 12.8397 6.57339 12.297C5.56161 11.5499 0.600165 7.62903 2.29307 3.81313C2.93833 2.35915 4.14745 2.11121 4.81075 2.09273C4.84287 2.09185 4.87455 2.09141 4.90689 2.09141C6.33007 2.09141 7.76117 2.96217 8.41259 4.23509C8.52567 4.45575 8.75249 4.59457 9.00021 4.59457C9.24793 4.59457 9.47475 4.45575 9.58783 4.23509C10.2538 2.93335 11.7425 2.05115 13.1894 2.09273C13.853 2.11121 15.0621 2.35915 15.7071 3.81313C17.4 7.62903 12.4384 11.5497 11.4266 12.297Z" fill="black"/>
</svg>
