<svg width="199" height="438" viewBox="0 0 199 438" fill="none" xmlns="http://www.w3.org/2000/svg">
<path d="M6.00002 432.303L6 6" stroke="black" stroke-width="11" stroke-linecap="round"/>
<path d="M161.057 275.577L7.80999 177.201C7.14444 176.774 6.26978 177.252 6.26978 178.043L6.26978 430.881C6.26978 431.687 7.17392 432.161 7.83732 431.704L161.877 325.523C179.522 313.36 179.092 287.154 161.057 275.577Z" stroke="black" stroke-width="11" stroke-linecap="round"/>
<path d="M106.044 240.784L7.8131 177.211C7.14774 176.781 6.26978 177.258 6.26978 178.051L6.26978 358.598C6.26978 359.406 7.17736 359.88 7.84044 359.419L106.864 290.605C124.383 278.43 123.954 252.375 106.044 240.784Z" stroke="black" stroke-width="11" stroke-linecap="round"/>
<path d="M108.666 311.417L7.54081 246.399C6.8753 245.971 6 246.449 6 247.24L6 430.879C6 431.686 6.9048 432.16 7.56815 431.702L109.486 361.339C127.107 349.174 126.677 322.997 108.666 311.417Z" stroke="black" stroke-width="11" stroke-linecap="round"/>
</svg>
