<svg width="16" height="16" viewBox="0 0 16 16" fill="none" xmlns="http://www.w3.org/2000/svg">
<path fill-rule="evenodd" clip-rule="evenodd" d="M0.257041 0.256577C-0.0850624 0.59868 -0.0850639 1.15334 0.257039 1.49544L6.76089 7.99928L0.256577 14.5036C-0.0855259 14.8457 -0.0855258 15.4003 0.256578 15.7424C0.598681 16.0845 1.15334 16.0845 1.49544 15.7424L7.99976 9.23814L14.504 15.7424C14.8461 16.0845 15.4008 16.0845 15.7429 15.7424C16.085 15.4003 16.085 14.8456 15.7429 14.5035L9.23863 7.99928L15.7424 1.49551C16.0845 1.15341 16.0845 0.598753 15.7424 0.25665C15.4003 -0.0854524 14.8456 -0.0854538 14.5035 0.256649L7.99976 6.76042L1.49591 0.256577C1.1538 -0.0855258 0.599144 -0.0855255 0.257041 0.256577Z" fill="white"/>
</svg>
