<svg width="13" height="9" viewBox="0 0 13 9" fill="none" xmlns="http://www.w3.org/2000/svg">
<path d="M6.5 8.35559C2.97208 8.35559 0.205453 4.6095 0.0894034 4.45167C0.0313096 4.37217 0 4.27626 0 4.1778C0 4.07933 0.0313096 3.98342 0.0894034 3.90392C0.205453 3.74609 2.97208 0 6.5 0C10.0279 0 12.7945 3.74609 12.9106 3.90392C12.9687 3.98342 13 4.07933 13 4.1778C13 4.27626 12.9687 4.37217 12.9106 4.45167C12.7945 4.6095 10.0279 8.35559 6.5 8.35559ZM1.05494 4.1778C1.74195 5.00407 3.95619 7.42719 6.5 7.42719C9.04381 7.42719 11.258 5.00407 11.9451 4.1778C11.258 3.35152 9.04381 0.928399 6.5 0.928399C3.95619 0.928399 1.74195 3.35152 1.05494 4.1778Z" fill="black"/>
<path d="M6.50004 6.96297C5.94918 6.96297 5.41069 6.79963 4.95267 6.49358C4.49465 6.18754 4.13766 5.75255 3.92686 5.24363C3.71605 4.7347 3.66089 4.17469 3.76836 3.63441C3.87583 3.09414 4.14109 2.59786 4.53061 2.20834C4.92013 1.81883 5.4164 1.55356 5.95668 1.4461C6.49695 1.33863 7.05696 1.39378 7.56589 1.60459C8.07482 1.81539 8.50981 2.17238 8.81585 2.6304C9.12189 3.08843 9.28524 3.62692 9.28524 4.17778C9.28524 4.91646 8.9918 5.62488 8.46947 6.14721C7.94715 6.66954 7.23872 6.96297 6.50004 6.96297ZM6.50004 2.32098C6.13047 2.30896 5.76572 2.40756 5.45254 2.60415C5.13936 2.80073 4.892 3.08635 4.74217 3.4244C4.59233 3.76245 4.54684 4.13754 4.61153 4.50161C4.67621 4.86567 4.84812 5.20214 5.10524 5.46789C5.36235 5.73364 5.69295 5.91657 6.05468 5.99324C6.41641 6.06991 6.7928 6.03684 7.13562 5.89825C7.47843 5.75966 7.77206 5.52187 7.97888 5.21535C8.18571 4.90883 8.2963 4.54755 8.2965 4.17778C8.3008 3.93781 8.25771 3.69936 8.16969 3.47607C8.08168 3.25279 7.95047 3.04907 7.78359 2.87658C7.61671 2.70409 7.41743 2.56623 7.19718 2.47089C6.97692 2.37555 6.74002 2.3246 6.50004 2.32098Z" fill="black"/>
</svg>
