<svg width="18" height="22" viewBox="0 0 18 22" fill="none" xmlns="http://www.w3.org/2000/svg">
<path d="M9.34865 0.247396L15.6188 0.586297C15.8971 0.600375 16.1244 0.790815 16.1988 1.04371L17.974 7.06713C18.0387 7.28752 17.9788 7.51482 17.836 7.67429L14.6049 11.7595C15.7112 12.7965 16.3373 14.2447 16.3373 15.7611C16.3373 18.795 13.8777 21.2546 10.8438 21.2546C8.06779 21.2546 5.72518 19.1744 5.39088 16.4302L0.2421 12.358C-0.0338325 12.1399 -0.0809305 11.739 0.137154 11.4631L8.81624 0.489285C8.94909 0.321115 9.14977 0.238181 9.34865 0.247396ZM12.4425 17.5861C12.4425 18.5885 10.9185 18.5885 10.9185 17.5861C10.9185 16.5837 12.4425 16.5837 12.4425 17.5861ZM9.93686 13.228C10.9392 13.228 10.9392 14.752 9.93686 14.752C8.9345 14.752 8.9345 13.228 9.93686 13.228ZM11.8909 13.3678C12.4034 12.7043 13.4132 13.4845 12.901 14.1474L9.79685 18.1544C9.2844 18.8178 8.27461 18.0376 8.7868 17.3747L11.8909 13.3678ZM6.63002 15.7611C6.63002 21.3071 15.0575 21.3015 15.0575 15.7611C15.0575 10.2073 6.63002 10.2726 6.63002 15.7611ZM13.5818 10.999L16.656 7.11193L15.1013 1.83644L9.61025 1.53926L1.53192 11.7536L5.428 14.8352C6.20998 10.9235 10.3874 9.15685 13.5818 10.999ZM12.4548 8.07846C9.14055 8.46472 8.5485 3.41678 11.8686 3.02925C15.185 2.64402 15.7734 7.69221 12.4548 8.07846ZM12.0135 4.29885C10.3659 4.49006 10.6525 7.00186 12.3099 6.80886C13.9573 6.61766 13.6712 4.10585 12.0135 4.29885Z" fill="black"/>
</svg>
