<svg width="18" height="15" viewBox="0 0 18 15" fill="none" xmlns="http://www.w3.org/2000/svg">
<path d="M17.8246 5.66632C17.7193 5.59549 17.5895 5.59155 17.4807 5.65058C17.4702 5.65845 16.9368 5.95357 15.7509 6.28017V2.42786C15.7719 2.32949 15.7825 2.22718 15.7825 2.12487C15.7825 1.39297 15.1684 0.834209 13.9544 0.464324C12.9719 0.165268 11.607 0 10.1193 0C7.70175 0 5.28421 0.417104 3.48772 1.14113C1.32632 2.01469 0.129825 3.29355 0.0105264 4.85572C0.00350888 4.8872 0 4.92261 0 4.95803V12.0331C0 12.0763 0.00701776 12.1196 0.0210528 12.1629C0.0456143 12.2416 0.298246 12.9696 1.45263 13.6661C2.9193 14.5514 5.15439 15 8.09123 15C15.0386 15 17.7018 13.489 17.8105 13.426C17.9263 13.3591 18 13.2253 18 13.0758V6.00079C17.993 5.86306 17.9298 5.73715 17.8246 5.66632ZM8.08772 7.13799C6.3614 7.13799 5.03509 6.97272 4.02807 6.74449V4.98557C4.16842 5.04853 4.32632 5.10362 4.50877 5.15084C5.09474 5.3043 5.91579 5.383 6.88421 5.383C8.74035 5.383 10.9123 5.09182 12.5544 4.61962C13.6807 4.29696 14.5123 3.91133 15.0526 3.47062V6.46118C13.5404 6.80745 11.2737 7.13799 8.08772 7.13799ZM4.02456 3.83263C4.09474 3.30142 4.40351 2.9276 4.98596 2.66396C5.48772 2.43573 6.17544 2.30588 7.03158 2.27833L7.01404 4.59208C6.90526 4.59208 6.79649 4.59208 6.69123 4.59208C4.60702 4.56847 4.11579 4.17891 4.02807 4.08447V3.83263H4.02456ZM3.72632 1.88484C5.45263 1.18835 7.78245 0.790924 10.1193 0.790924C13.4526 0.790924 15.0351 1.56611 15.0807 2.10519H15.0491V2.31375C14.9298 2.65609 14.5018 2.95514 14.2316 3.11254C13.6561 3.45488 12.807 3.76574 11.7825 4.01364C10.5333 4.31663 9.07368 4.51731 7.71228 4.57634L7.73333 1.88484C7.73333 1.77859 7.69825 1.68022 7.63158 1.60546C7.56491 1.53069 7.47719 1.48741 7.38246 1.48741C6.27018 1.48741 5.37193 1.63694 4.7193 1.93599C4.07368 2.23111 3.30526 2.84103 3.30526 4.0766C3.30526 4.13169 3.31228 4.18678 3.3193 4.24187V6.55955C2.69474 6.37067 2.22807 6.15819 1.8807 5.96144C1.09123 5.51285 0.796491 5.06427 0.705263 4.89507C0.796491 3.99397 1.42105 2.81348 3.72632 1.88484ZM17.2912 12.82C17.0982 12.9105 16.7509 13.0561 16.2281 13.2175V11.4546C16.2281 11.2382 16.0702 11.0611 15.8772 11.0611C15.6842 11.0611 15.5263 11.2382 15.5263 11.4546V13.4221C15.0386 13.548 14.4491 13.6779 13.7544 13.792V12.4187C13.7544 12.2023 13.5965 12.0252 13.4035 12.0252C13.2105 12.0252 13.0526 12.2023 13.0526 12.4187V13.8982C12.4947 13.9769 11.8807 14.0438 11.2 14.095V12.6272C11.2 12.4108 11.0421 12.2337 10.8491 12.2337C10.6561 12.2337 10.4982 12.4108 10.4982 12.6272V14.1028C10.4982 14.1146 10.4982 14.1264 10.4982 14.1422C9.9193 14.1776 9.29825 14.1973 8.63158 14.2051C8.6386 14.1737 8.64211 14.1382 8.64211 14.1028V12.6272C8.64211 12.4108 8.48421 12.2337 8.29123 12.2337C8.09825 12.2337 7.94035 12.4108 7.94035 12.6272V14.1028C7.94035 14.1382 7.94386 14.1737 7.95439 14.2091C7.27018 14.2051 6.64912 14.1776 6.08772 14.1264C6.08772 14.1186 6.08772 14.1107 6.08772 14.1028V12.5052C6.08772 12.2888 5.92983 12.1118 5.73684 12.1118C5.54386 12.1118 5.38597 12.2888 5.38597 12.5052V14.0517C4.71579 13.9651 4.14386 13.8549 3.65614 13.7251C3.66316 13.6936 3.66667 13.6621 3.66667 13.6267V11.5451C3.66667 11.3287 3.50877 11.1516 3.31579 11.1516C3.12281 11.1516 2.96491 11.3287 2.96491 11.5451V13.5126C2.51228 13.3552 2.15439 13.186 1.87368 13.0286C1.72632 12.946 1.59649 12.8633 1.48421 12.7807V11.2893C1.48421 11.0729 1.32632 10.8959 1.13333 10.8959C0.940351 10.8959 0.782456 11.0729 0.782456 11.2893V12.0999C0.736842 12.0331 0.705263 11.978 0.687719 11.9426V6.0362C0.880701 6.21327 1.12632 6.40609 1.43509 6.59103C2.90175 7.47639 5.13684 7.92497 8.07368 7.92497C13.4035 7.92497 16.2105 7.03568 17.2807 6.59496V12.82H17.2912Z" fill="black"/>
</svg>
