<svg width="15" height="18" viewBox="0 0 15 18" fill="none" xmlns="http://www.w3.org/2000/svg">
<path d="M14.04 16.38C14.04 17.0229 13.5186 17.55 12.8728 17.55H1.16719C0.524268 17.55 0 17.0248 0 16.38C0 12.503 3.14296 9.36 7.02 9.36C10.897 9.36 14.04 12.503 14.04 16.38ZM7.02 10.92C4.13566 10.92 1.77369 13.1565 1.57371 15.99H12.4663C12.2663 13.1565 9.90434 10.92 7.02 10.92ZM7.02 8.58C4.6507 8.58 2.73 6.6593 2.73 4.29C2.73 1.9207 4.6507 0 7.02 0C9.3893 0 11.31 1.9207 11.31 4.29C11.31 6.6593 9.3893 8.58 7.02 8.58ZM7.02 7.02C8.52774 7.02 9.75 5.79774 9.75 4.29C9.75 2.78226 8.52774 1.56 7.02 1.56C5.51226 1.56 4.29 2.78226 4.29 4.29C4.29 5.79774 5.51226 7.02 7.02 7.02Z" fill="black"/>
</svg>
