<svg width="17" height="17" viewBox="0 0 17 17" fill="none" xmlns="http://www.w3.org/2000/svg">
<path d="M16.02 14.8799L13.04 11.8999C15.32 9.05991 15.1 4.85991 12.5 2.27991C11.14 0.919912 9.31998 0.159912 7.37998 0.159912C5.43998 0.159912 3.63998 0.919912 2.25998 2.27991C0.899984 3.63991 0.139984 5.45991 0.139984 7.39991C0.139984 9.33991 0.899984 11.1399 2.25998 12.5199C3.61998 13.8799 5.43998 14.6399 7.37998 14.6399C9.01998 14.6399 10.62 14.0799 11.9 13.0599L14.88 16.0399C15.04 16.1999 15.24 16.2799 15.44 16.2799C15.66 16.2799 15.86 16.1999 16 16.0399C16.32 15.6999 16.32 15.1999 16.02 14.8799ZM13.02 7.37991C13.02 8.87991 12.44 10.2999 11.38 11.3599C10.32 12.4199 8.89998 12.9999 7.39998 12.9999C5.89998 12.9999 4.47998 12.4199 3.41998 11.3599C2.35998 10.2999 1.77998 8.87991 1.77998 7.37991C1.77998 5.87991 2.35998 4.45991 3.41998 3.39991C4.47998 2.33991 5.89998 1.75991 7.39998 1.75991C8.89998 1.75991 10.32 2.33991 11.38 3.39991C12.44 4.45991 13.02 5.87991 13.02 7.37991Z" fill="black"/>
</svg>
